<svg xmlns="http://www.w3.org/2000/svg" viewBox="0 0 400 300" data-imageid="online-team-meeting-6" imageName="Marketing" class="w-16 h-16 flex items-center text-red-500 mx-auto" style="width: 241px;"><g id="_185_marketing_outline" data-name="#185_marketing_outline"><polygon points="111.59 127.46 200 74.99 288.41 127.46 288.41 225.01 111.59 225.01 111.59 127.46" fill="#007aff" class="target-color"/><path d="M288.41,226H111.59a1,1,0,0,1-1-1V127.46a1,1,0,0,1,.49-.86l88.41-52.47a1,1,0,0,1,1,0l88.41,52.47a1,1,0,0,1,.49.86V225A1,1,0,0,1,288.41,226Zm-175.82-2H287.41V128L200,76.15,112.59,128Z" fill="#093f68"/><rect x="124.01" y="74.99" width="151.99" height="131.85" fill="#fff"/><path d="M276,207.84H124a1,1,0,0,1-1-1V75a1,1,0,0,1,1-1H276a1,1,0,0,1,1,1V206.84A1,1,0,0,1,276,207.84Zm-151-2H275V76H125Z" fill="#093f68"/><polygon points="288.41 127.46 200 196.05 288.41 225.01 288.41 127.46" fill="#007aff" class="target-color"/><path d="M288.41,226a.84.84,0,0,1-.31,0l-88.41-29a1,1,0,0,1-.68-.78,1,1,0,0,1,.38-1l88.41-68.59a1,1,0,0,1,1.05-.11,1,1,0,0,1,.56.9V225a1,1,0,0,1-.41.81A1,1,0,0,1,288.41,226ZM202.1,195.68l85.31,27.95V129.5Z" fill="#093f68"/><polygon points="111.59 127.46 200 196.05 111.59 225.01 111.59 127.46" fill="#007aff" class="target-color"/><path d="M111.59,226a1,1,0,0,1-.59-.19,1,1,0,0,1-.41-.81V127.46a1,1,0,0,1,.56-.9,1,1,0,0,1,1,.11l88.41,68.59a1,1,0,0,1,.38,1,1,1,0,0,1-.68.78L111.9,226A.84.84,0,0,1,111.59,226Zm1-96.51v94.13l85.31-27.95Z" fill="#093f68"/><path d="M288.41,225H111.59l81.35-61.67a11.7,11.7,0,0,1,14.12,0Z" fill="#007aff" class="target-color"/><path d="M288.41,226H111.59a1,1,0,0,1-.61-1.79l81.35-61.68a12.75,12.75,0,0,1,15.34,0L289,224.22a1,1,0,0,1-.61,1.79Zm-173.85-2H285.44l-79-59.87a10.73,10.73,0,0,0-12.92,0Z" fill="#093f68"/><path d="M169.07,129.93h1.39a5.13,5.13,0,0,1,5.13,5.13V159.6a0,0,0,0,1,0,0H163.94a0,0,0,0,1,0,0V135.06A5.13,5.13,0,0,1,169.07,129.93Z" transform="translate(371.03 241.05) rotate(165.11)" fill="#093f68"/><path d="M171.59,160.45a6.14,6.14,0,0,1-5.93-4.55l-6.3-23.72a1,1,0,0,1,.1-.76,1,1,0,0,1,.61-.46l11.26-3a1,1,0,0,1,1.22.71l6.31,23.72a6.13,6.13,0,0,1-4.35,7.5l-1.35.36A6,6,0,0,1,171.59,160.45Zm-10-27.82,6,22.75a4.12,4.12,0,0,0,5.05,2.93h0L174,158a4.14,4.14,0,0,0,2.93-5.06l-6.05-22.75Z" fill="#093f68"/><circle cx="237.59" cy="119.65" r="14.6" fill="#ffbc0e"/><path d="M237.59,135.25a15.61,15.61,0,1,1,15.6-15.6A15.62,15.62,0,0,1,237.59,135.25Zm0-29.21a13.61,13.61,0,1,0,13.6,13.61A13.62,13.62,0,0,0,237.59,106Z" fill="#093f68"/><polygon points="182.19 102.93 182.19 136.35 229.5 150 242.02 153.61 242.02 85.68 229.5 89.29 182.19 102.93" fill="#fff"/><path d="M242,154.61a.84.84,0,0,1-.27,0l-59.83-17.26a1,1,0,0,1-.73-1V102.93a1,1,0,0,1,.73-1l59.83-17.25a1,1,0,0,1,1.27,1v67.93a1,1,0,0,1-.4.8A1,1,0,0,1,242,154.61Zm-58.83-19L241,152.28V87l-57.83,16.68Z" fill="#093f68"/><path d="M147.81,103h17.71a16.67,16.67,0,0,1,16.67,16.67v0a16.67,16.67,0,0,1-16.67,16.67H147.81a0,0,0,0,1,0,0V103A0,0,0,0,1,147.81,103Z" transform="translate(330 239.29) rotate(180)" fill="#f56132"/><path d="M182.19,137.32H164.48a17.68,17.68,0,0,1,0-35.35h17.71a1,1,0,0,1,1,1v33.35A1,1,0,0,1,182.19,137.32ZM164.48,104a15.68,15.68,0,0,0,0,31.35h16.71V104Z" fill="#093f68"/><polygon points="229.5 89.29 229.5 150 242.02 153.61 242.02 85.68 229.5 89.29" fill="#f56132"/><path d="M242,154.61a.84.84,0,0,1-.27,0L229.22,151a1,1,0,0,1-.72-1V89.29a1,1,0,0,1,.72-1l12.53-3.61a1,1,0,0,1,1.27,1v67.93a1,1,0,0,1-.4.8A1,1,0,0,1,242,154.61Zm-11.52-5.36,10.52,3V87L230.5,90Z" fill="#093f68"/><path d="M174.74,110.74H163.65a1,1,0,0,1,0-2h11.09a1,1,0,0,1,0,2Z" fill="#093f68"/><path d="M174.74,114.93H163.65a1,1,0,0,1,0-2h11.09a1,1,0,0,1,0,2Z" fill="#093f68"/><path d="M174.74,119.11H163.65a1,1,0,0,1,0-2h11.09a1,1,0,0,1,0,2Z" fill="#093f68"/></g></svg>