<svg xmlns="http://www.w3.org/2000/svg"  viewBox="0 0 100 100" width="100px" height="100px"><path d="M78.5,96c-0.196,0-0.391-0.005-0.584-0.015C77.788,95.994,77.648,96,77.5,96h-50 C20.056,96,14,89.944,14,82.5v-66c0-3.584,2.916-6.5,6.5-6.5h51c3.584,0,6.5,2.916,6.5,6.5V48h7.5c3.584,0,6.5,2.916,6.5,6.5v28 C92,89.944,85.944,96,78.5,96z" opacity=".35"/><path fill="#f2f2f2" d="M76.5,94c-0.196,0-0.391-0.005-0.584-0.015C75.788,93.994,75.648,94,75.5,94H26.034 C18.283,94,12,87.717,12,79.966V15.034C12,11.149,15.149,8,19.034,8h49.933C72.851,8,76,11.149,76,15.034v30.433 C76,45.761,76.239,46,76.534,46h6.433C86.851,46,90,49.149,90,53.034V80.5C90,87.944,83.944,94,76.5,94z"/><path fill="#d9eeff" d="M18,78V14h52v21v41.978L78,88H28C22.477,88,18,83.523,18,78z"/><path fill="#70bfff" d="M60.5,39h-17c-0.828,0-1.5-0.672-1.5-1.5l0,0c0-0.828,0.672-1.5,1.5-1.5h17 c0.828,0,1.5,0.672,1.5,1.5l0,0C62,38.328,61.328,39,60.5,39z"/><path fill="#70bfff" d="M60.5,56h-14c-0.828,0-1.5-0.672-1.5-1.5l0,0c0-0.828,0.672-1.5,1.5-1.5h14 c0.828,0,1.5,0.672,1.5,1.5l0,0C62,55.328,61.328,56,60.5,56z"/><path fill="#70bfff" d="M60.5,63h-14c-0.828,0-1.5-0.672-1.5-1.5l0,0c0-0.828,0.672-1.5,1.5-1.5h14 c0.828,0,1.5,0.672,1.5,1.5l0,0C62,62.328,61.328,63,60.5,63z"/><path fill="#70bfff" d="M41.5,71h-14c-0.828,0-1.5-0.672-1.5-1.5l0,0c0-0.828,0.672-1.5,1.5-1.5h14 c0.828,0,1.5,0.672,1.5,1.5l0,0C43,70.328,42.328,71,41.5,71z"/><path fill="#70bfff" d="M41.5,78h-14c-0.828,0-1.5-0.672-1.5-1.5l0,0c0-0.828,0.672-1.5,1.5-1.5h14 c0.828,0,1.5,0.672,1.5,1.5l0,0C43,77.328,42.328,78,41.5,78z"/><path fill="#70bfff" d="M60.5,48h-33c-0.828,0-1.5-0.672-1.5-1.5l0,0c0-0.828,0.672-1.5,1.5-1.5h33 c0.828,0,1.5,0.672,1.5,1.5l0,0C62,47.328,61.328,48,60.5,48z"/><path fill="#70bfff" d="M35.5,39h-8c-0.828,0-1.5-0.672-1.5-1.5l0,0c0-0.828,0.672-1.5,1.5-1.5h8 c0.828,0,1.5,0.672,1.5,1.5l0,0C37,38.328,36.328,39,35.5,39z"/><path fill="#70bfff" d="M68,79V53h14v26c0,3.866-3.134,7-7,7h0C71.134,86,68,82.866,68,79z"/><rect width="36" height="10" x="26" y="21" fill="#70bfff"/><rect width="16" height="10" x="26" y="53" fill="#70bfff"/><rect width="16" height="10" x="46" y="68" fill="#70bfff"/><path fill="none" stroke="#40396e" stroke-linejoin="round" stroke-miterlimit="10" stroke-width="3" d="M69.5,52.5v-19v-19h-51v65 c0,4.418,3.582,8,8,8h48.494c4.698,0,8.506-3.808,8.506-8.506V52.5H69.5z"/></svg>