<svg xmlns="http://www.w3.org/2000/svg" viewBox="0 0 400 300" fill="currentColor" data-imageid="search-engine-e" imageName="Security" class="illustrations_image" style="width: 241px;"><g id="_009" data-name="009"><ellipse cx="298.46" cy="245.16" rx="14.85" ry="3.86" fill="#d1d3d4"/><ellipse cx="105.68" cy="248.23" rx="36.97" ry="5.35" fill="#d1d3d4"/><ellipse cx="203.81" cy="231.91" rx="58.31" ry="5.06" fill="#d1d3d4"/><rect x="173.5" y="199" width="60.61" height="25.29" fill="#fff"/><path d="M234.11,224.75H173.5a.47.47,0,0,1-.46-.46V199a.47.47,0,0,1,.46-.46h60.61a.47.47,0,0,1,.46.46v25.29A.47.47,0,0,1,234.11,224.75ZM174,223.83h59.69V199.46H174Z" fill="#231f20"/><rect x="152.41" y="223.87" width="102.8" height="8.32" rx="4.16" fill="#fff"/><path d="M251,232.65H156.57a4.62,4.62,0,1,1,0-9.23H251a4.62,4.62,0,1,1,0,9.23Zm-94.47-8.32a3.7,3.7,0,1,0,0,7.4H251a3.7,3.7,0,1,0,0-7.4Z" fill="#231f20"/><path d="M234.11,199v2.75c-18.51,1.88-48,9.34-60.61,12.68V199Z" fill="#231f20"/><path d="M173.5,214.87a.44.44,0,0,1-.27-.09.46.46,0,0,1-.17-.35V199a.44.44,0,0,1,.44-.44h60.61a.44.44,0,0,1,.44.44v2.75a.44.44,0,0,1-.39.44c-18.61,1.89-48.54,9.48-60.55,12.66Zm.44-15.43v14.41c12.28-3.24,41.32-10.56,59.73-12.49v-1.92Z" fill="#231f20"/><rect x="75.36" y="50.52" width="256.89" height="148.53" rx="9.97" fill="#fff"/><path d="M322.28,199.51H85.33A10.44,10.44,0,0,1,74.9,189.08V60.5A10.44,10.44,0,0,1,85.33,50.07h237A10.44,10.44,0,0,1,332.71,60.5V189.08A10.44,10.44,0,0,1,322.28,199.51ZM85.33,51a9.52,9.52,0,0,0-9.51,9.52V189.08a9.52,9.52,0,0,0,9.51,9.52h237a9.52,9.52,0,0,0,9.51-9.52V60.5A9.52,9.52,0,0,0,322.28,51Z" fill="#231f20"/><path d="M329.11,70.26H76a.47.47,0,0,1-.46-.46.46.46,0,0,1,.46-.45H329.11a.45.45,0,0,1,.45.45A.46.46,0,0,1,329.11,70.26Z" fill="#231f20"/><path d="M204.35,183.51h-1.11c-.38-.2-.75-.42-1.14-.59-17.16-7.8-30.33-19.16-39-34.44a75.63,75.63,0,0,1-8.66-23.94,66.54,66.54,0,0,1-1.06-14.29c0-.75.31-1.1,1.16-1.24,1.2-.2,2.39-.49,3.56-.8,5.84-1.6,10.53-4.54,13.62-9.31A19.31,19.31,0,0,0,174.83,87c-.05-.72.17-1,1-1.17,5.44-.88,10.85-1.89,16.3-2.73a65.91,65.91,0,0,1,19-.51c6.93.94,13.81,2.2,20.71,3.28.74.12.85.42.87,1a29.75,29.75,0,0,0,.26,4.63,20,20,0,0,0,8.24,13,27.68,27.68,0,0,0,11.39,4.5c1.31.24,1.59.77,1.62,1.84A68,68,0,0,1,251.13,133c-6,19.52-18.44,34.91-37.71,45.87C210.49,180.54,207.38,182,204.35,183.51Z" fill="#007aff" class="target-color"/><rect x="175.29" y="119.98" width="57.03" height="36.37" rx="7.64" fill="#fff"/><path d="M218.06,126.48H189.55a2,2,0,0,1-2-2V113.17a16.26,16.26,0,0,1,32.51,0v11.31A2,2,0,0,1,218.06,126.48Zm-26.51-4h24.51v-9.31a12.26,12.26,0,0,0-24.51,0Z" fill="#fff"/><circle cx="203.81" cy="132.51" r="5.46" fill="#007aff" class="target-color"/><rect x="202.28" y="133.56" width="3.05" height="12.72" fill="#007aff" class="target-color"/><circle cx="88.66" cy="61.09" r="3.35" fill="#007aff" class="target-color"/><circle cx="100.37" cy="61.09" r="3.35" fill="#d1d3d4"/><circle cx="112.08" cy="61.09" r="3.35" fill="#d1d3d4"/><line x1="247.11" y1="180.32" x2="311.28" y2="112.58" fill="#fff"/><path d="M247.11,180.78a.45.45,0,0,1-.34-.77L311,112.27a.46.46,0,0,1,.65,0,.47.47,0,0,1,0,.65l-64.18,67.74A.47.47,0,0,1,247.11,180.78Z" fill="#d1d3d4"/><line x1="133.02" y1="104.34" x2="160.36" y2="77.53" fill="#fff"/><path d="M133,104.8a.46.46,0,0,1-.32-.79L160,77.2a.45.45,0,0,1,.65,0,.46.46,0,0,1,0,.65l-27.34,26.81A.42.42,0,0,1,133,104.8Z" fill="#d1d3d4"/><line x1="301.77" y1="87.51" x2="269.69" y2="120.98" fill="#fff"/><path d="M269.69,121.44a.44.44,0,0,1-.32-.13.46.46,0,0,1,0-.65l32.08-33.47a.46.46,0,0,1,.67.63L270,121.3A.47.47,0,0,1,269.69,121.44Z" fill="#d1d3d4"/><path d="M78.37,179.8l.75,5s3,1.34,3.16,2.18,1,3.16.8,3.82c-.43,1.11-1.87.71-1.87.71a5.5,5.5,0,0,1,.13,2c-.21.45-7,1-8-.4s-3.25-15.89-3.25-15.89" fill="#fff"/><path d="M77.35,194.46c-1.69,0-3.78-.19-4.42-1.07-1.05-1.43-3.1-14.6-3.33-16.09a.45.45,0,0,1,.38-.52.45.45,0,0,1,.52.38c.86,5.57,2.48,14.75,3.17,15.69s6.26.72,7.27.38a6.53,6.53,0,0,0-.17-1.57.46.46,0,0,1,.13-.43.47.47,0,0,1,.44-.11s1,.27,1.31-.44a9.38,9.38,0,0,0-.56-2.66c-.11-.35-.2-.66-.25-.88a7.87,7.87,0,0,0-2.91-1.87.47.47,0,0,1-.27-.35l-.74-5a.45.45,0,1,1,.9-.13l.71,4.8c1,.49,3,1.5,3.2,2.39,0,.2.14.49.23.83.46,1.53.77,2.66.54,3.25a1.72,1.72,0,0,1-1.72,1.08,3.48,3.48,0,0,1,0,1.62c-.08.19-.21.45-2.06.64C79.59,194.36,78.58,194.46,77.35,194.46ZM81,193.18Z" fill="#231f20"/><path d="M81.21,191.56a10.76,10.76,0,0,1-1.1-2.79" fill="#fff"/><path d="M81.21,192a.45.45,0,0,1-.38-.21,11.35,11.35,0,0,1-1.17-2.93.47.47,0,0,1,.33-.56.46.46,0,0,1,.56.33,10.85,10.85,0,0,0,1,2.67.45.45,0,0,1-.39.7Z" fill="#231f20"/><path d="M134.78,179.8l-.74,5s-3,1.34-3.17,2.18-1,3.16-.8,3.82c.43,1.11,1.87.71,1.87.71a5.5,5.5,0,0,0-.13,2c.21.45,7,1,8-.4s3.25-15.89,3.25-15.89" fill="#fff"/><path d="M135.8,194.46c-1.23,0-2.24-.1-2.34-.11-1.85-.19-2-.45-2.06-.64a3.48,3.48,0,0,1,0-1.62,1.72,1.72,0,0,1-1.72-1.08c-.23-.59.08-1.72.54-3.25.1-.34.18-.63.23-.83.21-.89,2.16-1.9,3.2-2.39l.71-4.8a.45.45,0,1,1,.9.13l-.74,5a.45.45,0,0,1-.27.35,7.87,7.87,0,0,0-2.91,1.87c-.05.22-.14.53-.25.88a9.38,9.38,0,0,0-.56,2.66c.27.71,1.27.45,1.32.44a.45.45,0,0,1,.56.54,6.53,6.53,0,0,0-.17,1.57c1,.34,6.54.63,7.27-.38s2.31-10.12,3.17-15.69a.45.45,0,0,1,.52-.38.45.45,0,0,1,.38.52c-.23,1.49-2.28,14.66-3.33,16.09C139.58,194.27,137.49,194.46,135.8,194.46Zm-3.69-1.28Z" fill="#231f20"/><path d="M133,191.56a11,11,0,0,0,1.11-2.79" fill="#fff"/><path d="M133,192a.44.44,0,0,1-.24-.07.46.46,0,0,1-.15-.63,10.18,10.18,0,0,0,1.06-2.67.46.46,0,0,1,.55-.33.45.45,0,0,1,.33.56,11.18,11.18,0,0,1-1.16,2.92A.47.47,0,0,1,133,192Z" fill="#231f20"/><path d="M141,135.64h0s-3.7-13.33-8.05-18.14-16.23-9.91-35.92-7.36c0,0-10.22,2.71-16.38,8.57S72.28,135,72.28,135s-7.43,27-3.27,46.65l12.18.74S79.33,159.32,85.58,141c1.14,23,2.92,59.8,4.16,95.81l14.39-.3,4.1-46.25L109.74,236h14.73s4.13-57.58,2.12-97.56c7.43,18.61,5.37,44,5.37,44l12.18-.74C147.94,163.77,142.07,139.66,141,135.64Z" fill="#231f20"/><path d="M100.29,94.24c-.58-3.61-6.59-4.5-6.29-.24a6.26,6.26,0,0,0,1.6,4,3.72,3.72,0,0,0,4,.94" fill="#fff"/><path d="M98.38,99.72a4.48,4.48,0,0,1-3.15-1.36A6.86,6.86,0,0,1,93.48,94a2.87,2.87,0,0,1,2.58-3.38,4.37,4.37,0,0,1,4.73,3.5.51.51,0,1,1-1,.17,3.38,3.38,0,0,0-3.6-2.65c-.68.08-1.79.48-1.67,2.28A5.82,5.82,0,0,0,96,97.64a3.2,3.2,0,0,0,3.45.83.52.52,0,0,1,.68.26.53.53,0,0,1-.26.69A3.67,3.67,0,0,1,98.38,99.72Z" fill="#231f20"/><path d="M115.25,94.24c.57-3.61,6.58-4.5,6.28-.24a6.26,6.26,0,0,1-1.6,4,3.72,3.72,0,0,1-4,.94" fill="#fff"/><path d="M117.15,99.72a3.67,3.67,0,0,1-1.46-.3.52.52,0,0,1,.43-1,3.19,3.19,0,0,0,3.44-.83A5.82,5.82,0,0,0,121,94c.12-1.8-1-2.2-1.67-2.28a3.38,3.38,0,0,0-3.6,2.65.51.51,0,1,1-1-.17,4.36,4.36,0,0,1,4.73-3.5A2.87,2.87,0,0,1,122.05,94a6.81,6.81,0,0,1-1.75,4.32A4.48,4.48,0,0,1,117.15,99.72Z" fill="#231f20"/><polygon points="114.72 112.32 110.51 137.52 108.97 146.7 107.01 137.42 101.7 112.32 114.72 112.32" fill="#007aff" class="target-color"/><path d="M109.23,121l1.28,16.51L109,146.7l-2-9.28.74-16.16-1.57-2.7,1.83-2.83,2.54,2.62Z" fill="#fff"/><path d="M114.72,112.32a6.88,6.88,0,0,1-6.36,3.54,7.63,7.63,0,0,1-6.66-3.54l.2-2.53.46-5.88.44-5.49h10.82l.36,4.49.11,1.46Z" fill="#fff"/><path d="M108.36,116.37a8.12,8.12,0,0,1-7.12-3.81.45.45,0,0,1-.06-.28l1.11-13.9a.51.51,0,0,1,.51-.48h10.82a.52.52,0,0,1,.51.48l1.11,13.9a.56.56,0,0,1,0,.25A7.34,7.34,0,0,1,108.36,116.37Zm-6.14-4.18a7.14,7.14,0,0,0,6.14,3.15,6.41,6.41,0,0,0,5.84-3.13l-1.06-13.28h-9.86Z" fill="#231f20"/><path d="M114.82,102.49a5.19,5.19,0,0,1-.73,1.88,9.67,9.67,0,0,1-3.56,3.11c-2.33,1.29-5.81,2.74-8.63,2.31l.46-5.88a26.52,26.52,0,0,0,6.24,0,18.08,18.08,0,0,0,5.38-1C114.26,102.78,114.55,102.65,114.82,102.49Z" fill="#231f20"/><path d="M103,110.36a7.33,7.33,0,0,1-1.15-.08.49.49,0,0,1-.42-.53l.46-5.88a.56.56,0,0,1,.19-.35.52.52,0,0,1,.38-.1,26.22,26.22,0,0,0,6.12,0,17.56,17.56,0,0,0,5.23-1c.27-.12.54-.25.79-.39a.52.52,0,0,1,.54,0,.51.51,0,0,1,.2.49,5.66,5.66,0,0,1-.8,2,10,10,0,0,1-3.73,3.29C109,108.88,105.88,110.36,103,110.36Zm-.54-1c2.92.23,6.44-1.52,7.86-2.3a9,9,0,0,0,3.38-3,5.32,5.32,0,0,0,.35-.67,18.85,18.85,0,0,1-5.38,1,27.59,27.59,0,0,1-5.82,0Z" fill="#231f20"/><path d="M108.52,105.29h-1A8.29,8.29,0,0,1,99.27,97V83.88l9.54,2.37,8-2.37V97A8.29,8.29,0,0,1,108.52,105.29Z" fill="#fff"/><path d="M108.52,105.81h-1A8.82,8.82,0,0,1,98.75,97V83.88a.54.54,0,0,1,.2-.41.54.54,0,0,1,.44-.09l9.41,2.33,7.87-2.32a.49.49,0,0,1,.45.08.51.51,0,0,1,.21.41V97A8.82,8.82,0,0,1,108.52,105.81ZM99.78,84.54V97a7.79,7.79,0,0,0,7.78,7.77h1A7.79,7.79,0,0,0,116.3,97V84.57L109,86.74a.5.5,0,0,1-.27,0Z" fill="#231f20"/><path d="M99.25,91v-.75l.15,0,1.41-.29a10,10,0,0,1,2.31-.29,16.38,16.38,0,0,1,3.33.46,8.39,8.39,0,0,0,3.49.12c.86-.16,1.71-.33,2.57-.47a7.79,7.79,0,0,1,1.93-.09,26.27,26.27,0,0,1,2.91.58.26.26,0,0,1,.22.29v.65a.32.32,0,0,1-.16.29,1,1,0,0,0-.38.46,2.67,2.67,0,0,0-.13.4c-.14.49-.26,1-.41,1.49a2.81,2.81,0,0,1-1.89,1.94,4.06,4.06,0,0,1-2.13.15,3.35,3.35,0,0,1-2.53-1.77,8.42,8.42,0,0,1-.59-1.46A3.92,3.92,0,0,0,109,92a.38.38,0,0,0-.24-.17,3.08,3.08,0,0,0-.53,0,.39.39,0,0,0-.38.25,4.12,4.12,0,0,0-.24.67,5,5,0,0,1-.82,1.75,3.1,3.1,0,0,1-1.74,1.34,5.75,5.75,0,0,1-.83.14,4.81,4.81,0,0,1-2.34-.33,2,2,0,0,1-1.1-1,12.08,12.08,0,0,1-.78-2.26,1.61,1.61,0,0,0-.39-.74A1.22,1.22,0,0,1,99.25,91Z"/><path d="M118.49,91l-.19,0a.53.53,0,0,1-.29-.67,13,13,0,0,0,0-10.2,9.66,9.66,0,0,0-8-5.66,14.5,14.5,0,0,0-4.1.57,12.35,12.35,0,0,0-4.4,1.79,9.3,9.3,0,0,0-3.34,5.75,29,29,0,0,0-.24,7,.52.52,0,0,1-.49.54.51.51,0,0,1-.54-.49,29.66,29.66,0,0,1,.26-7.28A10.32,10.32,0,0,1,100.85,76a13.31,13.31,0,0,1,4.76-2,15.52,15.52,0,0,1,4.39-.6,10.69,10.69,0,0,1,8.92,6.26,14.05,14.05,0,0,1,0,11A.51.51,0,0,1,118.49,91Z" fill="#231f20"/><path d="M109.3,99.45a10.12,10.12,0,0,1-1.3-.07.5.5,0,0,1-.45-.57.51.51,0,0,1,.57-.45,10.76,10.76,0,0,0,2.16,0c.15-.61-.47-3.05-1.42-5.51a.52.52,0,0,1,1-.37c.61,1.59,2,5.41,1.31,6.49a.8.8,0,0,1-.61.4A8.87,8.87,0,0,1,109.3,99.45Z" fill="#231f20"/><path d="M105.8,101.79a.51.51,0,0,1-.09-1c.16,0,4.05-.77,6.53-.15a.52.52,0,0,1,.38.63.53.53,0,0,1-.63.38c-2.27-.57-6,.14-6.09.15Z" fill="#231f20"/><path d="M110.15,236l-.1,9.51,6.66,1.19.3-2a12.15,12.15,0,0,0,3.72,3.11c2.09,1,14.31,5.24,13.27,1.14s-6.11-5.81-8.35-8.21a6.23,6.23,0,0,1-1.79-5" fill="#fff"/><path d="M131.76,251.12c-3.83,0-10.42-2.54-11.22-2.92a11.39,11.39,0,0,1-3.23-2.48l-.15,1a.46.46,0,0,1-.19.3.42.42,0,0,1-.34.08L110,245.91a.46.46,0,0,1-.38-.45l.1-9.51a.46.46,0,0,1,.46-.45h0a.45.45,0,0,1,.45.46l-.09,9.12,5.82,1,.22-1.52a.46.46,0,0,1,.82-.21,11.64,11.64,0,0,0,3.56,3c2.1,1,10.78,3.87,12.46,2.49.15-.12.3-.32.17-.83-.65-2.55-3-4.11-5.18-5.62a17.88,17.88,0,0,1-3.06-2.39,6.61,6.61,0,0,1-1.91-5.34.46.46,0,0,1,.9.15A5.74,5.74,0,0,0,126,240.4a17.72,17.72,0,0,0,2.9,2.25c2.26,1.53,4.82,3.27,5.55,6.15a1.6,1.6,0,0,1-.47,1.77A3.54,3.54,0,0,1,131.76,251.12Z" fill="#231f20"/><path d="M103.59,236l.1,9.51L97,246.65l-.3-2A12.15,12.15,0,0,1,93,247.78c-2.09,1-14.32,5.24-13.27,1.14s6.11-5.81,8.35-8.21a6.23,6.23,0,0,0,1.79-5" fill="#fff"/><path d="M82,251.12a3.52,3.52,0,0,1-2.21-.55,1.6,1.6,0,0,1-.47-1.77c.73-2.88,3.29-4.62,5.55-6.15a17.72,17.72,0,0,0,2.9-2.25,5.71,5.71,0,0,0,1.67-4.57.46.46,0,0,1,.38-.52.45.45,0,0,1,.53.37A6.69,6.69,0,0,1,88.42,241a17.88,17.88,0,0,1-3.06,2.39c-2.23,1.51-4.53,3.07-5.18,5.62-.13.51,0,.71.17.83,1.68,1.38,10.36-1.49,12.46-2.49a11.64,11.64,0,0,0,3.56-3,.46.46,0,0,1,.48-.16.45.45,0,0,1,.33.37l.23,1.52,5.82-1-.1-9.12a.46.46,0,0,1,.46-.46h0a.46.46,0,0,1,.46.45l.1,9.51a.46.46,0,0,1-.38.45l-6.66,1.19a.44.44,0,0,1-.35-.08.45.45,0,0,1-.18-.3l-.15-1a11.39,11.39,0,0,1-3.23,2.48C92.4,248.58,85.8,251.12,82,251.12Z" fill="#231f20"/><path d="M124.27,171.19H112.69a.49.49,0,0,1-.48-.36l-3.07-11.17-2.7,10.46a.51.51,0,0,1-.49.38h0l-15.85-.4a.49.49,0,0,1-.48-.51.5.5,0,0,1,.5-.49h0l15.45.39,3.07-11.9a.49.49,0,0,1,.48-.37h0a.49.49,0,0,1,.48.37l3.47,12.6h11.2a.5.5,0,0,1,.5.5A.5.5,0,0,1,124.27,171.19Z" fill="#fff"/><path d="M298.19,193.61a8.35,8.35,0,0,0-1-4.57,33.65,33.65,0,0,1-2.05-2.89c-.87-1.86-.26-4.05-.46-6.09a7.58,7.58,0,0,0-2.14-4.53c-1.06-1.08-2.44-1.82-3.46-2.94-1.67-1.85-2.15-4.44-3.1-6.74a16.88,16.88,0,0,0-6.67-7.86c1.82,3.67-2.33,8.32-.45,12,.59,1.15,1.73,2,2.17,3.21,1.05,3-2.46,6.14-1.34,9.06.56,1.46,2.13,2.31,2.86,3.69,1,1.87.21,4.13.29,6.24.11,2.91,1.88,5.51,4,7.52,1.31,1.26,2.76,2.34,4.18,3.47,1.69,1.36,2.4,2.78,3.89.61A18.68,18.68,0,0,0,298.19,193.61Z" fill="#231f20"/><path d="M300.08,195.28c-.54-2.25-.93-4.69,0-6.81,1-2.4,3.62-4.1,3.92-6.7.2-1.7-.67-3.42-.33-5.1s1.72-2.83,2.85-4.07a17,17,0,0,0,4.39-10.39,26,26,0,0,1,4.18,6.91,8.88,8.88,0,0,1-.61,7.81,6.88,6.88,0,0,0-1.06,1.73c-.51,1.65.91,3.2,1.64,4.77a5.48,5.48,0,0,1-.52,5.64c-1.48,1.85-4.35,2.57-5.08,4.83a11.46,11.46,0,0,0-.25,2.56,7.54,7.54,0,0,1-5.42,6.46c-1.75.42-1.72-.27-2-1.75C301.32,199.18,300.56,197.26,300.08,195.28Z" fill="#231f20"/><path d="M294.49,179.1c-1.25-4.32-1.75-8.83-3.07-13.14a73.34,73.34,0,0,0-4.09-9.79l5.36,2.26c1.72.72,3.58,1.58,4.39,3.26,1.41,2.92-1.12,6.67.36,9.56a24.34,24.34,0,0,0,2.12,2.67c1.58,2.21,1.34,5.26.47,7.84-.37,1.1-2,6.84-3.45,5.25-.58-.64-.63-3-.87-3.89C295.33,181.77,294.87,180.45,294.49,179.1Z" fill="#231f20"/><path d="M297.38,236.51c-1.07-7.06-4.42-31.95-4.45-32.2l1-.14c0,.25,3.38,25.14,4.45,32.19Z" fill="#231f20"/><path d="M298.71,243.18h-1c.06-8.39,3.56-40.46,5.58-42.66l.74.67C302.49,202.86,298.78,233.86,298.71,243.18Z" fill="#231f20"/><path d="M300.53,241.58l-1-.05c.8-18.07-3-56-3.08-56.42l1-.1C297.49,185.39,301.33,223.43,300.53,241.58Z" fill="#231f20"/><path d="M288.23,219.48h19.95l-1.39,20.2a6.67,6.67,0,0,1-6.65,6.21h-3.86a6.67,6.67,0,0,1-6.65-6.21Z" fill="#fff"/><path d="M300.14,246.41h-3.86a7.21,7.21,0,0,1-7.17-6.69l-1.39-20.2a.52.52,0,0,1,.14-.39.51.51,0,0,1,.37-.16h19.95a.51.51,0,0,1,.52.55l-1.4,20.2A7.2,7.2,0,0,1,300.14,246.41ZM288.79,220l1.35,19.65a6.17,6.17,0,0,0,6.14,5.72h3.86a6.16,6.16,0,0,0,6.13-5.72L307.63,220Z" fill="#231f20"/></g></svg>