<svg id="_536_pr_flatline" data-name="#536_pr_flatline" xmlns="http://www.w3.org/2000/svg" viewBox="0 0 400 300" width="406" height="306" class="illustration styles_illustrationTablet__1DWOa"><path d="M101.58,192.3s-1.43,12.67,4,18.24,23.79,6.91,24.89,8.78,19.38,43.54,19.38,43.54c3,2.92,24-4.16,24.56-11.17,0,0-16.66-34.39-17.46-38.41s5.67-21.34,5.56-29.14Z" fill="#e6e7e8"></path><path d="M162.54,184.14c.11,7.8-6.36,25.11-5.56,29.14s17.46,38.41,17.46,38.41c-.49,5.9-15.42,11.84-21.93,11.84a3.9,3.9,0,0,1-2.63-.67s-18.28-41.67-19.38-43.54-19.42-3.21-24.89-8.78-4-18.24-4-18.24l61-8.16m0-1h-.13l-61,8.16a1,1,0,0,0-.87.88c-.06.54-1.41,13.21,4.32,19.05,3.6,3.67,12.13,5.54,18.36,6.9,2.59.57,5.81,1.28,6.41,1.74,1.12,2.06,14.27,31.92,19.29,43.38a1.21,1.21,0,0,0,.22.32,4.68,4.68,0,0,0,3.33.95c6.83,0,22.37-6.16,22.93-12.75a1,1,0,0,0-.1-.52c-4.62-9.54-16.74-35-17.38-38.18-.34-1.71,1-7,2.35-12.06,1.54-6,3.29-12.72,3.23-16.9a1,1,0,0,0-.35-.74,1,1,0,0,0-.65-.24Z" fill="#231f20"></path><path d="M155.1,192.41A15.69,15.69,0,0,0,152,201c-.13,4.84,6,15.09,6,15.09l13.8-8.93-7-16.22Z" fill="#fff"></path><path d="M158,216.57h-.11a.58.58,0,0,1-.32-.23c-.25-.43-6.21-10.43-6.07-15.37a16,16,0,0,1,3.25-8.86.5.5,0,0,1,.31-.18l9.64-1.49a.5.5,0,0,1,.54.29l7,16.22a.51.51,0,0,1-.19.62l-13.8,8.93A.5.5,0,0,1,158,216.57Zm-2.58-23.69a15.19,15.19,0,0,0-2.92,8.11c-.11,4.08,4.51,12.36,5.67,14.37l13-8.41-6.7-15.48Z" fill="#231f20"></path><path d="M247.49,227s-45.85-33.77-72.61-34a147.91,147.91,0,0,0-20.23,1.44c-15.81,2-31.66,5.58-42.69,6.16-21.88,1.16-38.37-5.62-38.74-28.47-.32-19.55,8.88-23.27,28.3-28.94,9.6-2.79,28.14-5.8,45.67-11,10.68-3.14,21-7.07,28.65-12.24,20.24-13.65,35-44.29,35-44.29Z" fill="#fff"></path><path d="M247.49,227.53a.53.53,0,0,1-.3-.09A303.38,303.38,0,0,0,221,210.54c-19.3-11-35.23-16.93-46.08-17A144.09,144.09,0,0,0,154.71,195c-6.49.83-12.94,1.91-19.18,3-8.75,1.47-17,2.86-23.54,3.2-14.21.76-24.73-1.94-31.23-8-5.19-4.84-7.89-11.89-8-21-.33-20,9.6-23.87,28.66-29.43,4.06-1.18,9.68-2.39,16.19-3.8,9.07-2,19.35-4.17,29.47-7.15,12.5-3.67,21.83-7.66,28.52-12.17,19.89-13.42,34.72-43.79,34.87-44.1a.5.5,0,0,1,.94.1L248,226.92a.49.49,0,0,1-.21.53A.45.45,0,0,1,247.49,227.53Zm-73.51-35h.9c11.19.1,26.86,5.87,46.59,17.16,12.05,6.9,22,13.85,25.21,16.16l-36-148.67c-3,5.86-16.77,31.24-34.59,43.26-6.78,4.58-16.2,8.61-28.79,12.31-10.16,3-20.46,5.21-29.55,7.17-6.49,1.4-12.09,2.61-16.12,3.78-19.09,5.57-28.26,9.11-27.94,28.45.15,8.78,2.74,15.59,7.72,20.24,6.3,5.87,16.56,8.48,30.5,7.74,6.46-.34,14.7-1.72,23.43-3.19,6.24-1,12.7-2.13,19.21-3A151.55,151.55,0,0,1,174,192.51Z" fill="#231f20"></path><path d="M263.47,230.94c-16.76,3.32-36-19.13-47.78-53.09a201.7,201.7,0,0,1-10.62-53.45C203,88.27,212.2,60,229.05,56.65c20.84-4.12,45.44,31.56,54.95,79.68S284.32,226.82,263.47,230.94Z" fill="#e6e7e8"></path><path d="M232.38,56.33c20.06,0,42.61,34.42,51.62,80,9.51,48.14.32,90.49-20.53,94.61a16.94,16.94,0,0,1-3.33.33c-15.92,0-33.41-21.69-44.45-53.42a201.7,201.7,0,0,1-10.62-53.45C203,88.27,212.2,60,229.05,56.65a16.93,16.93,0,0,1,3.33-.32m0-1h0a18,18,0,0,0-3.52.34c-17,3.36-27,31-24.79,68.79a203.3,203.3,0,0,0,10.67,53.72c11.44,32.86,29.26,54.09,45.4,54.09a18,18,0,0,0,3.52-.35c10.5-2.07,18.47-13.28,22.44-31.56,3.9-18,3.51-40.81-1.12-64.22-4.36-22.08-12.1-42.49-21.8-57.45s-20.71-23.36-30.8-23.36Z" fill="#231f20"></path><path d="M249.58,165.06l-33.89,12.79a201.7,201.7,0,0,1-10.62-53.45l38.4-.57Z" fill="#231f20"></path><path d="M215.69,178.35a.54.54,0,0,1-.22,0,.5.5,0,0,1-.26-.29,202.78,202.78,0,0,1-10.64-53.58.5.5,0,0,1,.13-.37.48.48,0,0,1,.36-.16l38.4-.57h0a.5.5,0,0,1,.49.43L250.08,165a.51.51,0,0,1-.32.54l-33.9,12.79A.47.47,0,0,1,215.69,178.35ZM205.6,124.89A201.59,201.59,0,0,0,216,177.2l33-12.46-6-40.4Z" fill="#231f20"></path><ellipse cx="246.44" cy="144.47" rx="9.7" ry="20.83" transform="translate(-18.98 38.84) rotate(-8.68)" fill="#fff"></ellipse><path d="M248.88,165.61c-5.4,0-10.8-8.33-12.52-19.6a36.51,36.51,0,0,1,.6-15.21c1.28-4.36,3.5-7,6.27-7.41s5.67,1.42,8.19,5.21a36.39,36.39,0,0,1,5.1,14.33h0c1.81,11.82-1.21,21.76-6.86,22.62A5.12,5.12,0,0,1,248.88,165.61ZM244,124.33a3.18,3.18,0,0,0-.62,0c-2.36.35-4.3,2.74-5.46,6.71a35.43,35.43,0,0,0-.57,14.77c1.69,11.08,7.14,19.45,12.16,18.7s7.72-10.4,6-21.48a35.33,35.33,0,0,0-5-13.93C248.49,126,246.18,124.33,244,124.33Z" fill="#231f20"></path><path d="M94.53,195.6a.49.49,0,0,1-.44-.26c-7.16-13.31-8.62-24.13-8.59-30.86,0-7.33,1.76-11.45,1.84-11.62a.5.5,0,1,1,.92.39c-.07.16-6.77,16.57,6.71,41.62a.49.49,0,0,1-.21.67A.46.46,0,0,1,94.53,195.6Z" fill="#d1d3d4"></path><path d="M153.68,67.61s-1.61-7.64-.28-7.69,2.39,3.77,2.39,3.77S159.33,56,160.18,57s2.21,4.12,1.84,5.07-2.88,8.29-2.88,8.29Z" fill="#fff"></path><path d="M159.14,70.87a.42.42,0,0,1-.22-.05l-5.46-2.76a.53.53,0,0,1-.27-.35c-.33-1.57-1.34-6.8-.44-7.95a.84.84,0,0,1,.63-.34h.05c1.13,0,2,1.64,2.45,2.91,1.22-2.53,3-5.76,4-5.9a.73.73,0,0,1,.67.26c.81,1,2.42,4.28,1.93,5.57-.36.93-2.85,8.2-2.88,8.28a.52.52,0,0,1-.28.3A.58.58,0,0,1,159.14,70.87Zm-5-3.6,4.73,2.4c.6-1.73,2.4-7,2.7-7.77.24-.61-.75-3.24-1.63-4.41-.71.56-2.4,3.65-3.67,6.41a.48.48,0,0,1-.5.28.49.49,0,0,1-.44-.36c-.43-1.55-1.26-3.25-1.81-3.39C153.19,61,153.46,64.06,154.12,67.27Z" fill="#231f20"></path><path d="M113.51,85.46s21.91,1.71,26.45-.78l12.11-18.29,9.46,4.46s-6.61,19.67-12,25.41c-8.71,9.21-36.44,5.25-36.44,5.25Z" fill="#007aff"></path><path d="M93.57,136.66s-12-19.74-12.46-33.55,8.41-15.72,11.48-16.28,19.29-4.7,26.17,2,9.52,42.29,9.52,42.29Z" fill="#007aff"></path><path d="M128.13,124s8.29,2.33,21.39,9.13c6,3.12,13.9,42.63,13.9,42.63s-.4,6.55-7.93,6.42L130.71,140S121.83,124.55,128.13,124Z" fill="#231f20"></path><path d="M155.71,182.64h-.23a.48.48,0,0,1-.42-.25l-24.78-42.12c-.27-.47-6.52-11.45-4.49-15.36a2.69,2.69,0,0,1,2.29-1.44.61.61,0,0,1,.19,0c.08,0,8.49,2.42,21.48,9.17,2.63,1.36,5.81,9,9.46,22.79,2.69,10.17,4.68,20.08,4.7,20.18a.53.53,0,0,1,0,.13C163.91,175.82,163.4,182.64,155.71,182.64Zm-27.62-58.17a1.68,1.68,0,0,0-1.41.9c-1.48,2.85,2.72,11.36,4.47,14.4l24.62,41.87c6.4,0,7.08-5.23,7.15-5.89-2.2-11-8.88-39.75-13.63-42.22A129.49,129.49,0,0,0,128.09,124.47Z" fill="#231f20"></path><path d="M92.27,132.36s28.12-2.51,34.6-4.25c0,0,.38,0,6.28,8.37s3.75,49.87,3.75,49.87-5.57,7.49-10.72,7.12l-11.46-45.71s-10.12,1.5-16.24-1.87C94.18,143.51,93.64,137.42,92.27,132.36Z" fill="#231f20"></path><path d="M126.55,194l-.41,0a.49.49,0,0,1-.45-.38l-11.35-45.28c-2.06.25-10.57,1.06-16.1-2-3.7-2-4.74-6.56-5.75-10.93-.22-1-.45-2-.7-2.9a.49.49,0,0,1,.07-.42.52.52,0,0,1,.36-.21c.28,0,28.16-2.52,34.52-4.24a.51.51,0,0,1,.18,0c.24,0,.61.06,6.63,8.58s3.94,48.48,3.85,50.18a.52.52,0,0,1-.1.27C137.07,187,131.79,194,126.55,194Zm-11.83-46.73a.5.5,0,0,1,.49.38L126.57,193c4.38,0,9.13-5.91,9.84-6.82.13-2.79,1.88-41.55-3.67-49.4-4.28-6.05-5.62-7.68-6-8.11-6.41,1.61-29.69,3.77-33.82,4.15.2.77.38,1.56.57,2.36,1,4.16,2,8.46,5.25,10.28,5.9,3.25,15.83,1.83,15.93,1.81Z" fill="#231f20"></path><path d="M99.8,76.32c-.5-.1-1.1-4-1.2-4.42A17.58,17.58,0,0,1,98,65a8.79,8.79,0,0,1,1.18-3.94,3.06,3.06,0,0,1,3.59-1.3,2.51,2.51,0,0,0,1.22.46,1.78,1.78,0,0,0,.85-.46,9.92,9.92,0,0,1,7.5-2.16,7.32,7.32,0,0,1,5.87,4.84c-.1-.53.65-.89,1.14-.65a2.13,2.13,0,0,1,.9,1.29,6.92,6.92,0,0,1,.28,4.7c-.65,1.59-2.39,1.66-4,1.66C111.94,69.46,104.71,77.34,99.8,76.32Z" fill="#fff"></path><path d="M100.72,76.91a5,5,0,0,1-1-.1h0c-.55-.11-.86-.78-1.49-4.28,0-.25-.08-.44-.1-.52a18.14,18.14,0,0,1-.59-7.07,9.36,9.36,0,0,1,1.27-4.15A3.52,3.52,0,0,1,103,59.32a2.79,2.79,0,0,1,.34.18,1.32,1.32,0,0,0,.62.23,1.46,1.46,0,0,0,.56-.33,10.4,10.4,0,0,1,7.91-2.29,8,8,0,0,1,5.92,4.28,1.4,1.4,0,0,1,1.23,0,2.51,2.51,0,0,1,1.16,1.58A7.19,7.19,0,0,1,121,68c-.81,2-3,2-4.43,2-2,0-4.66,1.66-7.26,3.27C106.39,75,103.36,76.91,100.72,76.91Zm-.69-1c2.46.42,5.67-1.57,8.78-3.49,2.83-1.76,5.51-3.41,7.77-3.42,1.62,0,3-.11,3.51-1.35a6.39,6.39,0,0,0-.29-4.34,1.69,1.69,0,0,0-.65-1,.38.38,0,0,0-.31,0,.21.21,0,0,0-.12.09.51.51,0,0,1-.38.58.5.5,0,0,1-.59-.34,6.78,6.78,0,0,0-5.47-4.5,9.31,9.31,0,0,0-7.11,2.07,2.16,2.16,0,0,1-1.12.55,2,2,0,0,1-1.19-.35l-.28-.15a2.58,2.58,0,0,0-3,1.13,8.68,8.68,0,0,0-1.1,3.73,17.15,17.15,0,0,0,.58,6.7c0,.09,0,.29.1.57A17.25,17.25,0,0,0,100,75.86Zm-.12,0Z" fill="#231f20"></path><path d="M113.87,83.86l-.34,7.44a5.47,5.47,0,0,1-6.75,2.55c-4.81-1.47-5.24-5-5.24-5l.86-13.77s4.07-2.16,5.3-10.71c0,0,10.62-.44,10.4,3.59,0,0,1,7.42.31,11.18S113.94,83.81,113.87,83.86Z" fill="#fff"></path><path d="M108.8,94.67a7.42,7.42,0,0,1-2.16-.34c-5.07-1.55-5.58-5.26-5.6-5.41l.86-13.86a.49.49,0,0,1,.27-.41s3.86-2.19,5-10.34a.51.51,0,0,1,.48-.43c.31,0,7.75-.3,10.14,2.13a2.52,2.52,0,0,1,.78,2c0,.22,1,7.45.3,11.26a6.7,6.7,0,0,1-4.54,5l-.34,7.1a.58.58,0,0,1,0,.19A6,6,0,0,1,108.8,94.67Zm-5.92-19.29L102,88.89s.47,3.13,4.89,4.48a4.92,4.92,0,0,0,6.1-2.2l.34-7.33a.53.53,0,0,1,.21-.39,1,1,0,0,1,.21-.09,5.87,5.87,0,0,0,4.13-4.3c.67-3.64-.3-11-.31-11a1.64,1.64,0,0,0-.5-1.32c-1.62-1.64-6.7-1.89-9-1.84C107,72.14,103.81,74.76,102.88,75.38ZM113.53,91.3h0Z" fill="#231f20"></path><path d="M105.28,75a3.32,3.32,0,0,0-1-1.77,5.6,5.6,0,0,0-1.66-1,2.33,2.33,0,0,0-1-.25,1.77,1.77,0,0,0-.71.21,2.46,2.46,0,0,0-1.25,1.17,2.84,2.84,0,0,0-.14,1.39,5.85,5.85,0,0,0,.28,1.5,3.87,3.87,0,0,0,5,2.32" fill="#fff"></path><path d="M103.45,79.38a4.36,4.36,0,0,1-1.84-.4,4.46,4.46,0,0,1-2.28-2.49A6.38,6.38,0,0,1,99,74.86a3.43,3.43,0,0,1,.18-1.63,3,3,0,0,1,1.49-1.42,2.47,2.47,0,0,1,.9-.26,2.82,2.82,0,0,1,1.24.28,6.12,6.12,0,0,1,1.8,1.06,3.69,3.69,0,0,1,1.14,2,.5.5,0,0,1-.4.58.51.51,0,0,1-.59-.4,2.64,2.64,0,0,0-.82-1.49,5.35,5.35,0,0,0-1.52-.86,1.9,1.9,0,0,0-.79-.21,1.44,1.44,0,0,0-.52.16,2,2,0,0,0-1,.91,2.48,2.48,0,0,0-.11,1.16,5.18,5.18,0,0,0,.27,1.37A3.4,3.4,0,0,0,102,78.07a3.44,3.44,0,0,0,2.6.1.5.5,0,0,1,.64.29.49.49,0,0,1-.29.64A4.23,4.23,0,0,1,103.45,79.38Z" fill="#231f20"></path><path d="M111.69,72.28s2.47,3.88,1.85,4.53-2.32.17-2.32.17" fill="#fff"></path><path d="M112.42,77.66a5.05,5.05,0,0,1-1.33-.2.5.5,0,1,1,.27-1c.57.16,1.54.26,1.82,0a13.36,13.36,0,0,0-1.91-3.91.5.5,0,0,1,.84-.54c1.78,2.8,2.38,4.53,1.79,5.15A2,2,0,0,1,112.42,77.66Z" fill="#231f20"></path><ellipse cx="108.4" cy="71.63" rx="0.63" ry="0.89" transform="matrix(1, -0.02, 0.02, 1, -1.17, 1.8)" fill="#231f20"></ellipse><ellipse cx="113.85" cy="71.93" rx="0.63" ry="0.89" transform="translate(-1.66 2.7) rotate(-1.35)" fill="#231f20"></ellipse><path d="M111.37,81a4.81,4.81,0,0,1-1.85-.34,5.11,5.11,0,0,1-2.9-3.66.5.5,0,1,1,1-.27,4.2,4.2,0,0,0,2.31,3c2.23.9,5.1-.75,5.13-.77a.5.5,0,0,1,.68.18.51.51,0,0,1-.18.69A9.27,9.27,0,0,1,111.37,81Z" fill="#231f20"></path><path d="M113.87,83.86s-4.67.85-7.33-.83c0,0,2.73,6.38,7.1,5.93Z" fill="#231f20"></path><path d="M113.19,89.48c-4.38,0-7-6-7.11-6.26a.49.49,0,0,1,.14-.57.48.48,0,0,1,.59,0c2.46,1.56,6.93.77,7,.76a.49.49,0,0,1,.42.11.48.48,0,0,1,.17.4l-.24,5.1a.5.5,0,0,1-.44.48Zm-5.54-5.39c1,1.65,2.92,4.36,5.51,4.39l.19-4A14,14,0,0,1,107.65,84.09Z" fill="#231f20"></path><path d="M86.12,89.51c-7.25,4.16-16.64,39.84-11,43.25,8.88,5.31,36.45-4.39,36.45-4.39L108,117.72s-18.15,2.66-18.85-1,8.1-22.3,6.37-24.71S86.12,89.51,86.12,89.51Z" fill="#007aff"></path><path d="M106.5,121.62a42.14,42.14,0,0,0,9-1.52,27.91,27.91,0,0,1,6.68-1.57,25.6,25.6,0,0,1,9,1,.62.62,0,0,1,.31.16c.31.34-.28.78-.74.85a12.14,12.14,0,0,1-3.61,0,34.18,34.18,0,0,1,8.56,3.33c.31.17.66.45.56.78s-.69.35-1.08.23l-6.86-2.21a16.45,16.45,0,0,1,4.95,2.26c.22.15.46.35.44.61,0,.45-.71.45-1.13.29a38.68,38.68,0,0,1-6.07-2.78l4.39,2.6c.09.33-.23.65-.56.7a1.83,1.83,0,0,1-1-.22L124.55,124l3,1.63c.47.26,1,.69.87,1.21s-1.06.53-1.67.34a34.39,34.39,0,0,0-7.46-1.36,12,12,0,0,0-2.73-.23,24.33,24.33,0,0,0-4,1.37l-5.91,2.12" fill="#fff"></path><path d="M106.7,129.54a.46.46,0,0,1-.15-.89l5.91-2.12c.39-.13.79-.3,1.19-.46a13,13,0,0,1,2.87-.93,6.37,6.37,0,0,1,2,.1,8.47,8.47,0,0,0,.88.12,33.66,33.66,0,0,1,7.56,1.39,1.59,1.59,0,0,0,1,0,.18.18,0,0,0,.08-.09c0-.17-.22-.44-.66-.68l-3-1.63a.45.45,0,0,1-.19-.6.45.45,0,0,1,.59-.22l4.79,2.06a1.54,1.54,0,0,0,.71.19l.09,0-4.08-2.42a.45.45,0,0,1-.16-.62.46.46,0,0,1,.62-.17,37.7,37.7,0,0,0,6,2.75,1.07,1.07,0,0,0,.5.06l-.21-.15a16.27,16.27,0,0,0-3.31-1.72l-1.53-.49a.46.46,0,0,1-.3-.56.47.47,0,0,1,.56-.32c.53.15,1.06.32,1.57.51l5.31,1.71a1,1,0,0,0,.53,0s-.14-.1-.37-.22a33.7,33.7,0,0,0-8.45-3.29.45.45,0,0,1-.34-.53.46.46,0,0,1,.52-.36,11.6,11.6,0,0,0,3.48,0,.76.76,0,0,0,.32-.12,24.89,24.89,0,0,0-8.76-.94,24.05,24.05,0,0,0-5.76,1.31l-.81.25a42.86,42.86,0,0,1-9.1,1.53.47.47,0,0,1-.5-.42.46.46,0,0,1,.42-.49,41.89,41.89,0,0,0,8.91-1.49l.8-.25a24.3,24.3,0,0,1,6-1.35,25.94,25.94,0,0,1,9.12,1,1.13,1.13,0,0,1,.53.29.75.75,0,0,1,.16.78,1.53,1.53,0,0,1-1.17.83l-.3,0a34.33,34.33,0,0,1,5.4,2.41c.91.5.85,1.09.78,1.32a.87.87,0,0,1-.43.51,1.78,1.78,0,0,1-1.23,0l-1.06-.34a.9.9,0,0,1,.18.62.8.8,0,0,1-.38.62,1.62,1.62,0,0,1-1.36,0q-.52-.18-1-.39a1,1,0,0,1-.16.41,1.16,1.16,0,0,1-.8.52,2.19,2.19,0,0,1-1.21-.25l-.26-.11a1.09,1.09,0,0,1,0,.6,1.05,1.05,0,0,1-.53.64,2.46,2.46,0,0,1-1.72,0,33.6,33.6,0,0,0-7.35-1.35c-.32,0-.64-.08-1-.13a5.69,5.69,0,0,0-1.68-.1,12.69,12.69,0,0,0-2.66.87c-.42.18-.83.34-1.23.49-2,.69-4,1.4-5.91,2.11A.45.45,0,0,1,106.7,129.54Z" fill="#231f20"></path><path d="M121.71,93.87c1.13.9,4.75,21.27,6.57,28.73" fill="#fff"></path><path d="M128.28,123.05a.46.46,0,0,1-.45-.35c-.65-2.69-1.54-7-2.47-11.6-1.39-6.81-3.28-16.13-4-16.89a.44.44,0,0,1-.06-.63.47.47,0,0,1,.65-.07c.76.61,1.94,6,4.26,17.41.93,4.57,1.81,8.89,2.46,11.57a.46.46,0,0,1-.33.55Z" fill="#231f20"></path><polygon points="159.87 127.27 159.78 130.32 119.02 141.29 119.36 138.11 159.87 127.27" fill="#fff"></polygon><path d="M119,141.79a.49.49,0,0,1-.32-.12.48.48,0,0,1-.17-.43l.33-3.18a.49.49,0,0,1,.37-.43l40.51-10.84a.5.5,0,0,1,.44.09.48.48,0,0,1,.19.41l-.09,3a.51.51,0,0,1-.37.47l-40.76,11A.27.27,0,0,1,119,141.79Zm.8-3.28-.22,2.11,39.69-10.68.06-2Z" fill="#231f20"></path><path d="M159.87,127.27s-10.39-7-10.7-6.87-42.12,10.21-42.12,10.21l12.31,7.5Z" fill="#fff"></path><path d="M119.36,138.61a.48.48,0,0,1-.26-.07L106.79,131a.52.52,0,0,1-.23-.51.5.5,0,0,1,.37-.41c14.3-3.45,41.49-10,42.09-10.19.26-.1.51-.2,11.13,6.92a.5.5,0,0,1-.15.9L119.49,138.6Zm-11-7.8,11.1,6.77,39.24-10.51c-3.61-2.41-8.64-5.71-9.53-6.15C146.57,121.58,118.84,128.28,108.34,130.81Z" fill="#231f20"></path><polygon points="119.02 141.29 107.13 133.51 107.05 130.61 119.36 138.11 119.02 141.29" fill="#fff"></polygon><path d="M119,141.79a.53.53,0,0,1-.27-.08l-11.89-7.78a.51.51,0,0,1-.23-.41l-.08-2.9a.5.5,0,0,1,.25-.44.52.52,0,0,1,.51,0l12.31,7.51a.49.49,0,0,1,.24.48l-.34,3.17a.48.48,0,0,1-.28.4A.42.42,0,0,1,119,141.79Zm-11.4-8.56,11,7.19.22-2-11.25-6.86Z" fill="#231f20"></path><polygon points="159.87 127.27 164.68 99.63 121.85 112.25 119.36 138.11 159.87 127.27" fill="#fff"></polygon><path d="M119.36,138.61a.49.49,0,0,1-.5-.54l2.49-25.87a.49.49,0,0,1,.36-.43l42.83-12.62a.49.49,0,0,1,.47.1.5.5,0,0,1,.16.46l-4.81,27.65a.48.48,0,0,1-.36.39L119.49,138.6Zm3-26-2.39,24.81,39.5-10.57,4.62-26.54Zm37.55,14.64h0Z" fill="#231f20"></path><path d="M98.23,133.78a.49.49,0,0,1-.48-.36.5.5,0,0,1,.34-.62l8.27-2.45-.89-9.76-16.14.24a.49.49,0,0,1-.38-.17.5.5,0,0,1-.12-.41l4.22-25.44a.5.5,0,0,1,.58-.41A.51.51,0,0,1,94,95l-4.12,24.85,16-.24h0a.49.49,0,0,1,.49.45l1,10.63a.5.5,0,0,1-.35.52l-8.67,2.57Z" fill="#231f20"></path><path d="M161.24,168.8c.65-.76,1.34-1.48,2.06-2.17,1.57-1.5,5-3.83,6.45-.92.87,1.8.16,4.42-.34,6.23a24.1,24.1,0,0,1-5.15,9.39c-2.08,2.39-9.18,6.32-9.35.36a8.82,8.82,0,0,1,.65-3.15A31.14,31.14,0,0,1,161.24,168.8Z" fill="#fff"></path><path d="M157.54,185.29a3.34,3.34,0,0,1-1.15-.19c-.85-.3-1.87-1.14-1.93-3.39a9,9,0,0,1,.67-3.33,31.21,31.21,0,0,1,5.77-9.88h0c.65-.76,1.35-1.5,2.08-2.2.49-.47,3.06-2.78,5.22-2.39a2.69,2.69,0,0,1,2,1.6c1,2,.2,4.73-.3,6.56a24.65,24.65,0,0,1-5.26,9.56C163.36,183.06,160.06,185.29,157.54,185.29Zm10.16-20.51c-1.24,0-2.91,1.05-4.09,2.18-.7.68-1.38,1.39-2,2.13h0a30.41,30.41,0,0,0-5.6,9.6,8.33,8.33,0,0,0-.62,3c0,1.4.49,2.26,1.33,2.56,1.92.69,5.7-1.47,7.21-3.21a23.51,23.51,0,0,0,5.06-9.21c.47-1.69,1.17-4.26.37-5.91a1.8,1.8,0,0,0-1.3-1.1A2,2,0,0,0,167.7,164.78Zm-6.46,4h0Z" fill="#231f20"></path><path d="M136.46,175.07a2.76,2.76,0,0,1,1.69-.7,2.26,2.26,0,0,1,1.1.45,5.15,5.15,0,0,1,1.9,4,12.91,12.91,0,0,1-.89,4.49c-1.52,4.43-3.78,8.82-7.57,11.58a7.55,7.55,0,0,1-2.24,1.19c-7.06,2.13-4.92-5.34-3.53-8.79A28.16,28.16,0,0,1,136.46,175.07Z" fill="#fff"></path><path d="M128.27,196.93a3,3,0,0,1-2.37-.91c-1.88-2.05-.21-6.89.6-8.88a28.78,28.78,0,0,1,9.69-12.44,3.19,3.19,0,0,1,2-.78,2.53,2.53,0,0,1,1.35.53,5.61,5.61,0,0,1,2.08,4.38,13.36,13.36,0,0,1-.91,4.65c-1.9,5.53-4.43,9.4-7.73,11.8a8,8,0,0,1-2.38,1.26A8.19,8.19,0,0,1,128.27,196.93Zm9.8-22.1a2.51,2.51,0,0,0-1.34.61h0a27.85,27.85,0,0,0-9.39,12c-1.19,2.94-2,6.57-.77,7.93.66.72,1.92.81,3.75.26a7.17,7.17,0,0,0,2.1-1.13c3.15-2.29,5.57-6,7.41-11.36a12.19,12.19,0,0,0,.86-4.33,4.67,4.67,0,0,0-1.71-3.66,1.68,1.68,0,0,0-.86-.36Zm-1.61.24h0Z" fill="#231f20"></path><path d="M136.6,152a.49.49,0,0,1-.49-.49c0-.07-.16-7.26-1.76-11a.5.5,0,1,1,.91-.4c1.68,3.88,1.84,11,1.84,11.33a.5.5,0,0,1-.49.51Z" fill="#fff"></path><path d="M109.18,94.51l-3,.87.88,2s-5.77,8.47-26.66,7.26l-6.21,4.67,5.74,3.24s18.83,1,28.69-14.88l1.86-.52Z" fill="#231f20"></path><rect x="275" y="48.3" width="39.28" height="27.44" transform="translate(-6.23 73.66) rotate(-14.1)" fill="#fff"></rect><path d="M278.93,80.61a.52.52,0,0,1-.25-.07.48.48,0,0,1-.23-.31l-6.69-26.61a.51.51,0,0,1,.37-.61l38.09-9.57a.51.51,0,0,1,.61.37l6.69,26.61a.49.49,0,0,1-.06.37.48.48,0,0,1-.31.23l-38.09,9.57Zm-6.07-26.75L279.3,79.5l37.12-9.33L310,44.53Z" fill="#d1d3d4"></path><path d="M278.93,80.61a.43.43,0,0,1-.19,0,.51.51,0,0,1-.27-.65l9.95-24a.5.5,0,0,1,.33-.29.45.45,0,0,1,.42.07l15.28,11a.5.5,0,1,1-.59.81L289.1,56.85,279.4,80.3A.51.51,0,0,1,278.93,80.61Z" fill="#d1d3d4"></path><path d="M300,64.56a.57.57,0,0,1-.18,0,.5.5,0,0,1-.29-.65l3.88-10.33a.45.45,0,0,1,.31-.29.48.48,0,0,1,.42.05L314.75,60a.49.49,0,0,1,.16.69.5.5,0,0,1-.69.15L304.1,54.48l-3.67,9.75A.49.49,0,0,1,300,64.56Z" fill="#d1d3d4"></path><path d="M297.82,55.67a2.93,2.93,0,0,1-.71-5.77,2.93,2.93,0,0,1,2.22.33,2.9,2.9,0,0,1,1.33,1.8h0a2.92,2.92,0,0,1-2.12,3.55A3,3,0,0,1,297.82,55.67Zm0-4.86a1.84,1.84,0,0,0-.47.06,2,2,0,0,0-1.19.88,1.91,1.91,0,0,0-.21,1.46,1.93,1.93,0,0,0,2.33,1.4,2,2,0,0,0,1.19-.88,1.91,1.91,0,0,0,.21-1.46h0a1.85,1.85,0,0,0-.88-1.18A1.92,1.92,0,0,0,297.83,50.81Z" fill="#d1d3d4"></path><circle cx="310.53" cy="201.7" r="14.86" fill="#fff"></circle><path d="M312.26,186.27l1.73.29a1.42,1.42,0,0,0,.18.08,14.58,14.58,0,0,1,6.88,3.69,15.14,15.14,0,0,1,4.43,15.53,14.49,14.49,0,0,1-5.67,8.28,15.17,15.17,0,0,1-13.43,2.52,14.46,14.46,0,0,1-6.42-3.61A15.35,15.35,0,0,1,295,201.39c0-.45,0-.9.05-1.35l.29-1.73c0-.1.08-.21.11-.31.2-.64.36-1.29.6-1.9a15.36,15.36,0,0,1,6.57-7.73,15.15,15.15,0,0,1,8.23-2.16C311.34,186.22,311.8,186.25,312.26,186.27Zm8.07,25.85a14.22,14.22,0,0,0,4.17-7.43l-6.07-1c-.28,1.07-.52,2.13-.84,3.17s-.72,2-1.06,3ZM296.38,200a14.21,14.21,0,0,0,1.53,8.39l4.36-.91a28.63,28.63,0,0,1,.22-6.46Zm28.3,3.47c.5-2.24-.39-7-1.53-8.37l-4.34.9a28.51,28.51,0,0,1-.21,6.45Zm-20.09-9.85-3.82-2.27c-1.74,1.32-4.11,5.52-4.15,7.42l6.08,1A28.48,28.48,0,0,1,304.59,193.6Zm5.54,14.32c.9.22,1.76.41,2.61.66s1.71.54,2.57.82l.12-.23a26.78,26.78,0,0,0,1.67-5.42c0-.25,0-.33-.25-.37l-5.52-.91a2.4,2.4,0,0,0-.28,0Zm-6.41-6.72a25.67,25.67,0,0,0-.2,6.17l5.37.29.91-5.44Zm13.64,1a26.06,26.06,0,0,0,.21-6.16l-5.4-.28-.9,5.42Zm-11.62-8.14a25.79,25.79,0,0,0-1.81,5.89l6.09,1,.91-5.42Zm11.66.66a13.79,13.79,0,0,0-1.18-4.05,6.22,6.22,0,0,0-1.73-2.3,11.06,11.06,0,0,0-1-.62l-1.12,6.7A27.12,27.12,0,0,0,317.4,194.74Zm-7.47,14.44-1.11,6.63a3.87,3.87,0,0,0,2.12-.69,10.8,10.8,0,0,0,3.24-3.55c.2-.32.38-.65.58-1A26.57,26.57,0,0,0,309.93,209.18Zm-2.36,6.44,1.11-6.65a26.33,26.33,0,0,0-5-.26c.18.75.32,1.47.52,2.17a9,9,0,0,0,1.72,3.47A4.05,4.05,0,0,0,307.57,215.62Zm-1.31-22.76a27.74,27.74,0,0,0,4.88,1.4l1.12-6.65a3.66,3.66,0,0,0-1.51.38,7.63,7.63,0,0,0-2.81,2.39C307.35,191.16,306.84,192,306.26,192.86Zm13,20.14a17.26,17.26,0,0,0-3.36-1.95,14.41,14.41,0,0,1-3.89,4.86A14.37,14.37,0,0,0,319.29,213ZM309,187.58c-1.54-.2-6.19,1.68-7.23,2.95l3.29,1.9c.61-.93,1.15-1.8,1.74-2.64A10.24,10.24,0,0,1,309,187.58Zm-10.42,22a14.47,14.47,0,0,0,5.95,5.14,14.1,14.1,0,0,1-2.12-5.9A17.45,17.45,0,0,0,298.6,209.54Zm18-20.68a11.48,11.48,0,0,1,1.3,2.8c.28,1,.52,2,.78,3a18.18,18.18,0,0,0,3.76-.76A13.83,13.83,0,0,0,316.64,188.86Z" fill="#d1d3d4"></path><rect x="267.07" y="102.34" width="24.78" height="17.02" rx="3.39" transform="translate(-15.24 51.38) rotate(-10.23)" fill="#fff"></rect><path d="M271.51,121.38a3.9,3.9,0,0,1-3.83-3.2l-1.82-10.07a3.92,3.92,0,0,1,3.14-4.53l17.71-3.19a3.88,3.88,0,0,1,4.52,3.14l1.82,10.07a3.92,3.92,0,0,1-3.14,4.53h0l-17.71,3.19A4,4,0,0,1,271.51,121.38Zm15.89-20a3.12,3.12,0,0,0-.52,0l-17.7,3.2a2.89,2.89,0,0,0-2.33,3.36L268.66,118a2.86,2.86,0,0,0,1.2,1.86,2.82,2.82,0,0,0,2.16.47l17.71-3.19a2.89,2.89,0,0,0,2.33-3.36l-1.81-10.07a3,3,0,0,0-1.2-1.87A2.87,2.87,0,0,0,287.4,101.33Zm2.42,16.3h0Z" fill="#d1d3d4"></path><path d="M276.31,117.2a.43.43,0,0,1-.19,0,.48.48,0,0,1-.3-.37L274,106.57a.5.5,0,0,1,.16-.46.48.48,0,0,1,.47-.11L286,109.21a.49.49,0,0,1,.16.88l-9.6,7A.45.45,0,0,1,276.31,117.2Zm-1.21-10,1.56,8.64,8.12-5.93Z" fill="#d1d3d4"></path><rect x="261.01" y="148.46" width="36.88" height="20.32" fill="#fff"></rect><path d="M297.9,169.28H261a.51.51,0,0,1-.5-.5V148.46a.5.5,0,0,1,.5-.5H297.9a.5.5,0,0,1,.5.5v20.32A.51.51,0,0,1,297.9,169.28Zm-36.39-1H297.4V149H261.51Z" fill="#d1d3d4"></path><path d="M279.46,161.63a.47.47,0,0,1-.28-.09l-18.45-12.67a.5.5,0,1,1,.57-.83l18.16,12.49L297.61,148a.5.5,0,1,1,.57.83l-18.44,12.67A.47.47,0,0,1,279.46,161.63Z" fill="#d1d3d4"></path><path d="M261,169.28a.52.52,0,0,1-.41-.22.51.51,0,0,1,.13-.7l14.78-10.16a.51.51,0,0,1,.7.13.52.52,0,0,1-.13.7L261.3,169.19A.52.52,0,0,1,261,169.28Z" fill="#d1d3d4"></path><path d="M297.89,169.28a.51.51,0,0,1-.28-.09L282.84,159a.5.5,0,1,1,.57-.83l14.77,10.16a.51.51,0,0,1,.13.7A.52.52,0,0,1,297.89,169.28Z" fill="#d1d3d4"></path><polygon points="341.92 153.12 321.56 150.61 325.48 118.79 351.19 121.95 348.04 147.5 341.92 153.12" fill="#fff"></polygon><path d="M341.92,153.62h-.07L321.5,151.1a.5.5,0,0,1-.44-.55L325,118.73a.5.5,0,0,1,.56-.44l25.71,3.17a.49.49,0,0,1,.34.19.52.52,0,0,1,.1.37l-3.15,25.54a.47.47,0,0,1-.16.31l-6.13,5.61A.47.47,0,0,1,341.92,153.62Zm-19.8-3.45,19.63,2.42,5.82-5.33,3.06-24.87-24.72-3Z" fill="#d1d3d4"></path><line x1="329.33" y1="124.38" x2="346.66" y2="126.52" fill="#fff"></line><path d="M346.66,127h-.06l-17.33-2.13a.5.5,0,0,1-.43-.56.48.48,0,0,1,.55-.43L346.72,126a.5.5,0,0,1-.06,1Z" fill="#d1d3d4"></path><line x1="328.7" y1="129.51" x2="346.03" y2="131.64" fill="#fff"></line><path d="M346,132.14H346L328.64,130a.5.5,0,1,1,.12-1l17.33,2.14a.5.5,0,0,1-.06,1Z" fill="#d1d3d4"></path><line x1="328.07" y1="134.63" x2="345.39" y2="136.77" fill="#fff"></line><path d="M345.4,137.27h-.07L328,135.13a.5.5,0,1,1,.12-1l17.33,2.13a.51.51,0,0,1,.43.56A.5.5,0,0,1,345.4,137.27Z" fill="#d1d3d4"></path><line x1="327.44" y1="139.76" x2="344.76" y2="141.89" fill="#fff"></line><path d="M344.76,142.39h-.06l-17.32-2.13a.51.51,0,0,1-.44-.56.49.49,0,0,1,.56-.44l17.33,2.14a.5.5,0,0,1-.07,1Z" fill="#d1d3d4"></path><line x1="326.81" y1="144.89" x2="338.54" y2="146.33" fill="#fff"></line><path d="M338.54,146.83h-.06l-11.74-1.45a.49.49,0,0,1-.43-.55.49.49,0,0,1,.56-.44l11.73,1.45a.5.5,0,0,1-.06,1Z" fill="#d1d3d4"></path><polygon points="341.92 153.12 342.69 146.84 348.04 147.5 341.92 153.12" fill="#fff"></polygon><path d="M341.92,153.62a.46.46,0,0,1-.23-.06.5.5,0,0,1-.27-.51l.77-6.27a.49.49,0,0,1,.56-.43l5.36.66a.5.5,0,0,1,.41.34.48.48,0,0,1-.14.52l-6.13,5.61A.47.47,0,0,1,341.92,153.62Zm1.2-6.22-.54,4.43,4.33-4Z" fill="#d1d3d4"></path></svg>